<svg viewBox="0 0 1024 1176.463" xmlns="http://www.w3.org/2000/svg"><path d="M659.398 639.403c-.633-.02-1.377-.032-2.124-.032-36.047 0-65.757 27.132-69.825 62.087l-.032.328c-.008.072-.012.155-.012.24 0 1.325 1.074 2.4 2.4 2.4H729.467c1.326 0 2.4-1.075 2.4-2.4 0-.085-.004-.168-.013-.25v.01c-2.86-35.127-32.074-62.55-67.692-62.55-1.677 0-3.34.06-4.987.18l.22-.013zM806.715 749.29c0 4.243-3.438 7.68-7.68 7.68H591.007c-1.326 0-2.4 1.076-2.4 2.4 0 .085.003.168.012.25l-.002-.01c6.756 37.58 39.205 65.726 78.228 65.726 2.107 0 4.194-.082 6.26-.243l-.274.017c27.067-.75 51.922-9.625 72.374-24.26l-.394.267c1.29-1.013 2.936-1.625 4.725-1.625 2.605 0 4.907 1.297 6.295 3.28l.016.025 25.433 37.19c.822 1.227 1.31 2.737 1.31 4.36 0 2.504-1.16 4.735-2.973 6.187l-.016.012c-30.662 22.528-69.16 36.05-110.815 36.05-1.7 0-3.393-.022-5.082-.066l.25.005c-2.475.147-5.368.23-8.28.23-82.288 0-148.996-66.708-148.996-148.996 0-2.106.044-4.2.13-6.285l-.01.298c-.04-1.296-.063-2.82-.063-4.348 0-82.687 67.03-149.718 149.718-149.718.95 0 1.9.01 2.847.027l-.143-.002.68-.002c81.386 0 147.362 65.976 147.362 147.362 0 5.14-.264 10.217-.778 15.22l.052-.627zM309.338 886.533c-3.034.144-6.59.227-10.166.227-58.387 0-111.652-21.932-152.007-58.005l.22.194c-1.317-1.54-2.12-3.556-2.12-5.76s.802-4.217 2.13-5.77l-.01.013 35.272-49.426c1.63-2.273 4.262-3.737 7.238-3.737 2.297 0 4.39.872 5.966 2.303l-.006-.007c30.86 28.697 72.37 46.308 117.99 46.308h.568-.03c46.308 0 68.86-21.355 68.86-43.91 0-70.06-227.934-22.073-227.934-171.07 0-65.985 57.103-119.966 150.197-119.966 2.363-.09 5.14-.14 7.927-.14 53.39 0 102.39 18.79 140.75 50.12l-.4-.316c1.446 1.574 2.333 3.683 2.333 5.998s-.887 4.424-2.34 6.004l.007-.006-36.23 47.987c-1.638 2.126-4.186 3.483-7.05 3.483-2.16 0-4.14-.772-5.68-2.055l.014.012c-29.046-23.324-66.36-37.434-106.968-37.434-.436 0-.872.003-1.307.006h.068c-36.23 0-56.384 16.076-56.384 39.828 0 62.862 227.456 20.874 227.456 167.952.236 72.462-51.35 127.166-158.36 127.166zM958.83 170.816L662.277 503.603c-1.664 1.742-4.004 2.825-6.598 2.825s-4.934-1.083-6.595-2.82l-.003-.005-151.396-155.955c-1.217-1.536-1.953-3.5-1.953-5.638s.736-4.103 1.968-5.657l49.17-64.282c1.68-2.242 4.332-3.678 7.32-3.678s5.637 1.436 7.3 3.656l.017.024 84.216 93.812c1.68 1.897 4.12 3.087 6.84 3.087s5.158-1.19 6.83-3.077l.007-.01L896.93 42.216c.686-1.013 1.096-2.262 1.096-3.608 0-3.458-2.71-6.283-6.12-6.47H60.767c-3.843 0-6.958 3.115-6.958 6.958v945.808c0 3.843 3.115 6.958 6.957 6.958H963.15c3.84 0 6.956-3.115 6.956-6.957V176.096c.05-.306.08-.658.08-1.017 0-3.578-2.9-6.478-6.478-6.478-1.943 0-3.685.855-4.873 2.21l-.006.006z"/></svg>