<svg fill="none" height="24" viewBox="0 0 24 24" width="24" xmlns="http://www.w3.org/2000/svg"><g fill="#000001"><path d="m6.76333 12.2977c.02467-.1362.03667-.2637.03667-.3816 0-.3338-.06667-.5974-.20133-.7916-.13334-.1928-.31534-.2899-.546-.2899-.24267 0-.43534.1025-.57667.3081-.142.2057-.21267.4834-.21267.8334 0 .3418.07.6101.20934.8057.14.1955.33133.2933.574.2933.146 0 .266-.0371.36133-.1126.09533-.0749.172-.1706.23067-.2866.05866-.1153.10066-.242.12466-.3782z"/><path d="m19.8067 9.82526c-.0154 0-.0267.00135-.0347.0027v.10316h.0347c.0393 0 .0733-.01484.0733-.05259 0-.0263-.0193-.05327-.0733-.05327z"/><g clip-rule="evenodd" fill-rule="evenodd"><path d="m20.04 9.94258c0-.12946-.0967-.23261-.2167-.23261h-.0013c-.1193 0-.2167.10315-.2167.23126 0 .13017.0974.23257.218.23257.1207.0014.2167-.1024.2167-.23122zm-.2347.02629h-.0346v.13083h-.048v-.30545c.0253-.00405.0493-.00742.0853-.00742.046 0 .076.00944.094.02292.018.01349.028.03439.028.06338 0 .03978-.026.06473-.0587.07417v.00269c.0267.00472.0447.029.0507.07421.0073.0472.0147.066.0193.0755h-.0506c-.0074-.0095-.0147-.0371-.0207-.0776-.0067-.03839-.026-.05323-.0647-.05323z"/><path d="m23 1h-22v22h22zm-18.95067 12.0063c.05667-.114.08467-.238.08467-.3722 0-.0937-.01133-.1787-.034-.2569-.02267-.0775-.06267-.1537-.12133-.2292-.05867-.0755-.13867-.1558-.23934-.2414-.10066-.0856-.228-.1854-.38133-.2993-.15267-.118-.25933-.2091-.32133-.2745-.06267-.0647-.09334-.1382-.09334-.2198 0-.0856.03467-.1564.10534-.2137.07-.0573.16-.0856.268-.0856.17733 0 .346.0566.50666.1706l.23534-.383c-.12467-.0809-.26-.1423-.40667-.1847-.14667-.0425-.298-.0634-.45467-.0634-.14866 0-.286.0209-.412.0613-.12666.0405-.23466.0971-.32466.1706-.09.0728-.16134.1612-.21334.265s-.078.2191-.078.3452c0 .1092.01934.207.05734.2926.03866.0856.08866.1625.15066.232.06267.0694.13134.1341.208.1955.076.0607.15467.1193.23467.1766.10467.0776.19.143.256.1956.06667.0526.11867.1018.15667.1463.038.0451.064.089.078.1314.014.0425.02133.089.02133.1376 0 .1139-.03867.2043-.11733.2717-.07867.0674-.182.1005-.31067.1005-.10467 0-.20733-.0243-.30733-.0729-.10067-.0485-.21267-.1254-.33734-.2312l-.25933.4261c.15667.1261.31333.2164.46933.2704.15667.0546.33334.0816.53067.0816.16467 0 .31667-.0223.45533-.0668.13867-.0445.258-.1065.35867-.1861.10067-.0795.17933-.176.23533-.2899zm3.49667-1.7429c.06467.1868.09667.3938.09667.6216 0 .2401-.036.4605-.10934.6621-.07266.201-.17333.3769-.30266.5273-.12934.1503-.28267.267-.46.3506-.17734.0829-.36934.1247-.57467.1247-.09267 0-.17933-.0081-.26-.0242-.08067-.0162-.15733-.0439-.23-.0823s-.144-.0883-.21467-.1497c-.07066-.0607-.144-.1362-.22066-.2259v1.9324h-.77467v-4.5726h.77533l.004.4449c.14067-.1786.29334-.3094.45867-.393.16533-.083.35667-.1248.574-.1248.19733 0 .37733.0378.54067.1126.16266.0755.304.1801.42266.3142.11867.1342.21.2947.27467.4821zm1.23667 2.2115h-.79534v-4.4749h.79534zm3.39603-3.0516v3.0543h-.7947l-.002-.4086c-.1533.1713-.31.294-.4713.3695-.1614.0748-.3487.1126-.562.1126-.2374 0-.43737-.0472-.6007-.143-.16333-.0957-.28067-.2373-.35333-.4247-.02-.0445-.03534-.0917-.04534-.1403-.01-.0485-.01933-.1045-.02733-.1679-.008-.0633-.01333-.1355-.01533-.2171-.002-.0815-.00334-.1813-.00334-.2993v-1.7348h.79537v1.7462c0 .1551.0073.2731.0213.3547s.0393.1551.076.2198c.0927.1712.2567.2569.4907.2569.2993 0 .5053-.1268.618-.3789.028-.0654.0486-.1376.0606-.2171.012-.0796.018-.1929.018-.3392v-1.6431zm3.4293 1.3208v1.7301h-.7947v-1.7422c0-.1544-.0073-.2724-.0213-.3533s-.0393-.1544-.0753-.2191c-.0927-.1699-.2567-.2556-.4907-.2556-.1493 0-.2773.0317-.3847.0944-.1073.0627-.1873.1551-.2393.2771-.0287.0695-.048.1436-.058.2225s-.0153.1895-.0153.3318v1.6451h-.802v-3.0462h.8013l.0013.4086c.1534-.1706.31-.294.4714-.3695.1613-.0755.3486-.1133.562-.1133.238 0 .438.0499.6013.1497s.2807.2407.3533.4234c.016.0452.03.0911.042.1376s.022.1004.03.1611c.0087.0614.0134.1328.0154.2164.002.083.0033.1834.0033.3014zm2.0807.0061 1.212 1.5238-.742.2622-1.1994-1.6822v1.6216h-.802v-4.47493h.802v2.62683h.0847l1.0667-1.2494.6026.2623zm4.3113-.0688v.499l-2.4113 1.2129v-.536l1.8686-.9318-1.8686-.9197v-.5481zm-2.446-1.74017c0-.1517.12-.27374.268-.27374h.0013c.148 0 .266.12136.266.27374 0 .15437-.118.27507-.2673.27507-.148 0-.268-.1207-.268-.27507z"/></g></g></svg>